# xmcd
#
# Track frame offsets:
#	182
#	12700
#	23852
#	33942
#	49340
#	59262
#	70487
#	82512
#	93230
#	105082
#	118342
#	128420
#
# Disc length: 1854 seconds
#
# Revision: 0
# Processed by: cddbd v1.4PL0 Copyright (c) Steve Scherf et al.
# Submitted via: EasyCDDAExtractor 4.5.0.2
#
DISCID=91073c0c
DTITLE=the nashville harmonica - 12 if your favorites
DYEAR=1987
DGENRE=country
TTITLE0=orange blossom special
TTITLE1=i'm so lonsome i could cry 
TTITLE2=name this song 
TTITLE3=for the good times 
TTITLE4=is anybody going to san antone
TTITLE5=satin sheets
TTITLE6=today i  started loving you again 
TTITLE7=blues stay away from me 
TTITLE8=dont expect me to be your friend 
TTITLE9=shenandoah
TTITLE10=me and bobby mcgee
TTITLE11=silver wings 
EXTD=
EXTT0=
EXTT1=
EXTT2=
EXTT3=
EXTT4=
EXTT5=
EXTT6=
EXTT7=
EXTT8=
EXTT9=
EXTT10=
EXTT11=
PLAYORDER=
